<svg width="72" height="72" viewBox="0 0 72 72" fill="none" xmlns="http://www.w3.org/2000/svg">
<path d="M24.0492 36.6016L33.6 46.3898L17.8029 56.8633C17.8029 56.8633 15.8891 57.6983 13.625 55.2638C11.361 52.8293 12.1235 51.238 12.1235 51.238L24.0492 36.6016Z" fill="url(#paint0_radial_1122_315)"/>
<path d="M25.036 34.1953L36.0016 46.1471L25.0632 53.8004C25.0632 53.8004 21.8305 55.0945 18.1003 51.0133C14.3702 46.9319 15.9214 44.5066 15.9214 44.5066L25.036 34.1953Z" fill="url(#paint1_radial_1122_315)"/>
<path d="M39.0027 13.0156L59.1027 33.6749L32.5352 50.4103C32.5352 50.4103 28.7486 50.2513 24.4005 45.4858C20.0525 40.7204 21.4123 35.8062 21.4123 35.8062L39.0027 13.0156Z" fill="url(#paint2_radial_1122_315)"/>
<path d="M57.674 15.3516C63.1075 21.2807 63.9889 29.2883 59.6417 33.2371C55.2947 37.186 47.3659 35.5806 41.9323 29.6515C36.4985 23.7224 35.6176 15.7148 39.9646 11.766C44.3115 7.81716 52.2403 9.42252 57.674 15.3516Z" fill="url(#paint3_radial_1122_315)"/>
<path d="M58.3803 31.255C54.8137 34.5032 48.2159 33.0817 43.6437 28.0798C39.0716 23.078 38.2563 16.39 41.8229 13.1419C45.3895 9.89363 51.9873 11.3152 56.5595 16.3171C61.1314 21.3189 61.9468 28.0069 58.3803 31.255Z" fill="url(#paint4_radial_1122_315)"/>
<path opacity="0.85" d="M59.6799 28.823C60.5776 24.1785 59.656 20.5934 56.1619 16.6199C52.6678 12.6464 47.3524 10.8657 43.7812 12.7598C39.3726 15.098 48.375 13.5961 53.4593 19.5815C57.8275 24.724 58.8532 33.1009 59.6799 28.823Z" fill="url(#paint5_radial_1122_315)"/>
<path opacity="0.4" d="M50.3979 25.2491C50.4549 26.7278 49.2932 27.7716 47.8032 27.5805C46.3131 27.3895 45.059 26.0359 45.002 24.5571C44.945 23.0784 46.1067 22.0346 47.5968 22.2257C49.0868 22.4167 50.341 23.7703 50.3979 25.2491Z" fill="url(#paint6_radial_1122_315)"/>
<path opacity="0.6" d="M36.9251 21L26.4292 34.3588C26.3331 36.4565 28.2937 39.5495 30.0368 40.8305L41.2379 29.9066C39.6034 28.1966 36.9625 24.0986 36.9251 21Z" fill="url(#paint7_radial_1122_315)"/>
<path fill-rule="evenodd" clip-rule="evenodd" d="M20.0592 9.60156L21.4806 11.7187L24.0016 11.0654L22.3591 13.0272L23.7805 15.1444L21.344 14.2397L19.7016 16.2016L19.8381 13.6806L17.4016 12.7759L19.9225 12.1225L20.0592 9.60156ZM58.7776 52.8016L58.9639 56.4685L62.4016 57.4188L59.079 58.7347L59.2653 62.4016L57.0255 59.548L53.703 60.8638L55.6413 57.7843L53.4016 54.9307L56.8393 55.8811L58.7776 52.8016ZM15.2076 24.2101L15.8784 21.0016L13.4809 23.1964L10.6869 21.5563L11.9991 24.553L9.60156 26.7478L12.8101 26.405L14.1223 29.4016L14.7931 26.1931L18.0016 25.8502L15.2076 24.2101Z" fill="url(#paint8_linear_1122_315)"/>
<defs>
<radialGradient id="paint0_radial_1122_315" cx="0" cy="0" r="1" gradientUnits="userSpaceOnUse" gradientTransform="translate(36.6875 32.7016) rotate(135) scale(34.9134)">
<stop stop-color="#99421D"/>
<stop offset="0.333333" stop-color="#99161D"/>
<stop offset="0.666667" stop-color="#7D1845"/>
<stop offset="1" stop-color="#59216E"/>
</radialGradient>
<radialGradient id="paint1_radial_1122_315" cx="0" cy="0" r="1" gradientUnits="userSpaceOnUse" gradientTransform="translate(42.5953 27.2953) rotate(135) scale(44.5477 44.5279)">
<stop stop-color="#EF7744"/>
<stop offset="0.333333" stop-color="#E50914"/>
<stop offset="0.666667" stop-color="#A70D53"/>
<stop offset="1" stop-color="#792A95"/>
</radialGradient>
<radialGradient id="paint2_radial_1122_315" cx="0" cy="0" r="1" gradientUnits="userSpaceOnUse" gradientTransform="translate(42.3027 29.1021) rotate(135) scale(31.8127)">
<stop stop-color="#FB540D"/>
<stop offset="0.333333" stop-color="#E50914"/>
<stop offset="0.666667" stop-color="#A70D53"/>
<stop offset="1" stop-color="#792A95"/>
</radialGradient>
<radialGradient id="paint3_radial_1122_315" cx="0" cy="0" r="1" gradientUnits="userSpaceOnUse" gradientTransform="translate(57.6781 14.7078) rotate(134.326) scale(24.0433 24.0367)">
<stop stop-color="#FFDCCC"/>
<stop offset="0.333333" stop-color="#FFBDC0"/>
<stop offset="0.666667" stop-color="#F89DC6"/>
<stop offset="1" stop-color="#E4A1FA"/>
</radialGradient>
<radialGradient id="paint4_radial_1122_315" cx="0" cy="0" r="1" gradientUnits="userSpaceOnUse" gradientTransform="translate(52.1321 21.273) rotate(141.875) scale(9.87138 12.8159)">
<stop offset="0.307292" stop-color="#F89DC6"/>
<stop offset="0.645392" stop-color="#E75094"/>
<stop offset="1" stop-color="#59216E"/>
</radialGradient>
<radialGradient id="paint5_radial_1122_315" cx="0" cy="0" r="1" gradientUnits="userSpaceOnUse" gradientTransform="translate(55.8016 15.6) rotate(135) scale(13.1522)">
<stop stop-color="white"/>
<stop offset="1" stop-color="white" stop-opacity="0"/>
</radialGradient>
<radialGradient id="paint6_radial_1122_315" cx="0" cy="0" r="1" gradientUnits="userSpaceOnUse" gradientTransform="translate(49.2362 22.9687) rotate(131.079) scale(5.08644 6.006)">
<stop stop-color="white"/>
<stop offset="1" stop-color="white" stop-opacity="0"/>
</radialGradient>
<radialGradient id="paint7_radial_1122_315" cx="0" cy="0" r="1" gradientUnits="userSpaceOnUse" gradientTransform="translate(36.8792 29.1314) rotate(137.622) scale(13.5764)">
<stop stop-color="#FFA984"/>
<stop offset="1" stop-color="#F7636B" stop-opacity="0"/>
</radialGradient>
<linearGradient id="paint8_linear_1122_315" x1="44.6516" y1="27.9016" x2="24.2516" y2="48.3016" gradientUnits="userSpaceOnUse">
<stop stop-color="#EF7744"/>
<stop offset="0.333333" stop-color="#E50914"/>
<stop offset="0.666667" stop-color="#A70D53"/>
<stop offset="1" stop-color="#792A95"/>
</linearGradient>
</defs>
</svg>
